<?xml version="1.0" encoding="utf-8"?>
<svg version="1.1" xmlns:xlink="http://www.w3.org/1999/xlink" width="49px" height="49px" xmlns="http://www.w3.org/2000/svg">
  <g transform="matrix(1 0 0 1 -164 -252 )">
    <path d="M 48.671875 24.434375  C 48.671875 11.06328125  37.82734375 0.21875  24.45625 0.21875  C 11.0796875 0.21875  0.240625 11.0578125  0.240625 24.434375  C 0.240625 37.8109375  11.0796875 48.65  24.45625 48.65  C 37.8328125 48.65  48.671875 37.80546875  48.671875 24.434375  Z M 14.4703125 16.9421875  L 14.4703125 16.44453125  C 14.4703125 16.17109375  14.69453125 15.946875  14.96796875 15.946875  L 16.46640625 15.946875  C 16.73984375 15.946875  16.9640625 16.17109375  16.9640625 16.44453125  L 16.9640625 16.9421875  L 14.4703125 16.9421875  Z M 37 32.41875  L 36.9359375 32.41875  C 36.9359375 33.24453125  36.26328125 33.9171875  35.4375 34  L 13.475 34  C 12.64921875 33.9171875  11.9765625 33.24453125  12 32.41875  L 12 19.44140625  C 11.9765625 18.615625  12.64921875 17.94296875  13.475 17.94296875  L 17.9703125 17.94296875  C 19.46875 17.94296875  19.96640625 14.94609375  20.9671875 14.94609375  L 27.45859375 14.94609375  C 28.940625 14.94609375  29.509375 17.94296875  30.953125 17.94296875  L 35.4484375 17.94296875  C 36.27421875 17.94296875  36.946875 18.615625  37 19.44140625  L 37 32.41875  Z M 30.44453125 25.4296875  C 30.44453125 22.12109375  27.76484375 19.44140625  24.45625 19.44140625  C 21.14765625 19.44140625  18.46796875 22.12109375  18.46796875 25.4296875  C 18.46796875 28.73828125  21.14765625 31.41796875  24.45625 31.41796875  C 27.76484375 31.41796875  30.44453125 28.73828125  30.44453125 25.4296875  Z M 28.9515625 25.4296875  C 28.94609375 27.9125  26.93359375 29.925  24.45625 29.925  C 21.9734375 29.925  19.9609375 27.9125  19.9609375 25.4296875  C 19.9609375 22.946875  21.9734375 20.934375  24.45625 20.934375  C 26.9390625 20.934375  28.9515625 22.946875  28.9515625 25.4296875  Z M 30.9421875 20.190625  C 30.9421875 20.6044070899123  31.2776241600877 20.93984375  31.69140625 20.93984375  C 32.1051883399123 20.93984375  32.440625 20.6044070899123  32.440625 20.190625  C 32.440625 19.7768429100877  32.1051883399123 19.44140625  31.69140625 19.44140625  C 31.2776241600877 19.44140625  30.9421875 19.7768429100877  30.9421875 20.190625  Z " fill-rule="nonzero" fill="#2697eb" stroke="none" transform="matrix(1 0 0 1 164 252 )" />
  </g>
</svg>