<?xml version="1.0" encoding="utf-8"?>
<svg version="1.1" xmlns:xlink="http://www.w3.org/1999/xlink" width="215px" height="125px" xmlns="http://www.w3.org/2000/svg">
  <defs>
    <mask fill="white" id="clip146">
      <path d="M 967 328  C 961.45 328  957 323.55  957 318  L 957 213  C 957 207.45  961.45 203  967 203  L 1162 203  C 1167.55 203  1172 207.45  1172 213  L 1172 318  C 1172 323.55  1167.55 328  1162 328  " fill-rule="evenodd" />
    </mask>
  </defs>
  <g transform="matrix(1 0 0 1 -957 -203 )">
    <path d="M 957 203  L 1172 203  L 1172 328  L 957 328  L 957 203  " fill-rule="nonzero" fill="#cccccc" stroke="none" mask="url(#clip146)" />
    <path d="M 966 212  L 1163 212  L 1163 319  L 966 319  L 966 212  " fill-rule="nonzero" fill="#ffffff" stroke="none" mask="url(#clip146)" />
    <path d="M 1078.175 240.5  C 1072.925 240.5  1068.8 236.375  1068.8 231.125  C 1068.8 225.875  1072.925 221.75  1078.175 221.75  C 1083.425 221.75  1087.55 225.875  1087.55 231.125  C 1087.55 236.375  1083.425 240.5  1078.175 240.5  " fill-rule="nonzero" fill="#cccccc" stroke="none" mask="url(#clip146)" />
    <path d="M 969 316  L 969 260.45  L 1016.75 235.2  L 1083.6 280.767441860465  L 1121.8 250.35  L 1160 280.767441860465  L 1160 316  L 969 316  " fill-rule="nonzero" fill="#169bd5" stroke="none" mask="url(#clip146)" />
  </g>
</svg>