<?xml version="1.0" encoding="utf-8"?>
<svg version="1.1" xmlns:xlink="http://www.w3.org/1999/xlink" width="14px" height="12px" xmlns="http://www.w3.org/2000/svg">
  <g transform="matrix(1 0 0 1 -464 -326 )">
    <path d="M 13.65 0.432786885245902  C 14.0159090909091 0.904918032786886  14.0159090909091 1.65245901639344  13.6340909090909 2.10491803278689  L 5.99772727272727 11.5475409836066  C 5.71136363636364 11.9016393442623  5.31363636363636 11.9803278688525  4.96363636363636 11.8032786885246  C 4.85227272727273 11.744262295082  4.74090909090909 11.6655737704918  4.64545454545455 11.5475409836066  L 0.365909090909091 6.25573770491803  C 0 5.80327868852459  0 5.03606557377049  0.365909090909091 4.58360655737705  C 0.731818181818182 4.13114754098361  1.35227272727273 4.13114754098361  1.71818181818182 4.58360655737705  L 5.32954545454545 9.04918032786885  L 12.2977272727273 0.432786885245902  C 12.6636363636364 -0.0196721311475399  13.2681818181818 -0.0196721311475399  13.65 0.432786885245902  Z " fill-rule="nonzero" fill="#70b603" stroke="none" transform="matrix(1 0 0 1 464 326 )" />
  </g>
</svg>