<svg class="icon" viewBox="0 0 1024 1024" version="1.1" xmlns="http://www.w3.org/2000/svg" p-id="5524" height="128" width="128"><path d="M686.08 505.173333c-64.853333 0-119.466667 52.906667-119.466667 119.466667 0 64.853333 52.906667 119.466667 119.466667 119.466667 64.853333 0 119.466667-52.906667 119.466667-119.466667s-52.906667-119.466667-119.466667-119.466667z m73.386667 78.506667l-73.386667 95.573333c-1.706667 3.413333-6.826667 5.12-10.24 5.12-3.413333 0-8.533333-1.706667-10.24-3.413333l-54.613333-46.08c-3.413333-3.413333-5.12-6.826667-5.12-10.24 0-3.413333 1.706667-6.826667 3.413333-10.24 3.413333-3.413333 6.826667-5.12 10.24-5.12 3.413333 0 6.826667 1.706667 10.24 3.413333l42.666667 35.84 63.146666-83.626666c5.12-6.826667 13.653333-6.826667 20.48-3.413334 6.826667 6.826667 8.533333 17.066667 3.413334 22.186667z" fill="#FF6600" p-id="5525"></path><path d="M686.08 469.333333c42.666667 0 80.213333 17.066667 107.52 44.373334V329.386667c0-25.6-22.186667-47.786667-47.786667-47.786667H266.24c-25.6 0-47.786667 22.186667-47.786667 47.786667v329.386666c0 25.6 22.186667 47.786667 47.786667 47.786667h288.426667c-15.36-23.893333-23.893333-51.2-23.893334-81.92 0-87.04 69.973333-155.306667 155.306667-155.306667z m-124.586667-112.64h167.253334c5.12 0 10.24 5.12 10.24 10.24s-5.12 10.24-10.24 10.24h-167.253334c-5.12 0-10.24-5.12-10.24-10.24s5.12-10.24 10.24-10.24z m0 54.613334h167.253334c5.12 0 10.24 5.12 10.24 10.24s-5.12 10.24-10.24 10.24h-167.253334c-5.12 0-10.24-5.12-10.24-10.24s5.12-10.24 10.24-10.24z m-47.786666 197.973333c-1.706667 8.533333-3.413333 13.653333-5.12 15.36-3.413333 1.706667-5.12 1.706667-8.533334 3.413333-5.12 1.706667-10.24 1.706667-17.066666 3.413334s-13.653333 1.706667-22.186667 3.413333c-15.36 1.706667-32.426667 3.413333-47.786667 3.413333h-44.373333c-17.066667-1.706667-32.426667-1.706667-47.786667-3.413333-8.533333-1.706667-15.36-1.706667-22.186666-3.413333s-11.946667-1.706667-17.066667-3.413334c-3.413333 0-6.826667-1.706667-8.533333-3.413333-1.706667-1.706667-3.413333-6.826667-5.12-15.36-1.706667-8.533333 0-18.773333 1.706666-32.426667 0-6.826667 3.413333-13.653333 8.533334-17.066666 5.12-3.413333 10.24-6.826667 17.066666-10.24 6.826667-1.706667 13.653333-5.12 20.48-6.826667 6.826667-1.706667 13.653333-5.12 18.773334-8.533333 3.413333-1.706667 6.826667-5.12 10.24-6.826667 1.706667-1.706667 3.413333-5.12 5.12-6.826667 1.706667-1.706667 1.706667-5.12 1.706666-6.826666v-8.533334c0-5.12-1.706667-8.533333-5.12-11.946666l-8.533333-8.533334-5.12-5.12c-1.706667-3.413333-1.706667-5.12-3.413333-8.533333s-1.706667-6.826667-3.413334-10.24c-1.706667 0-3.413333-1.706667-3.413333-1.706667-3.413333-3.413333-6.826667-6.826667-6.826667-11.946666-1.706667-3.413333-1.706667-6.826667-1.706666-10.24 0-1.706667 0-5.12 1.706666-6.826667 1.706667-1.706667 1.706667-5.12 3.413334-6.826667 0-15.36 1.706667-30.72 5.12-44.373333 1.706667-6.826667 5.12-13.653333 10.24-20.48 3.413333-5.12 8.533333-10.24 13.653333-13.653333 8.533333-6.826667 18.773333-10.24 29.013333-11.946667 5.12 0 10.24-1.706667 13.653334-1.706667h3.413333c5.12 0 8.533333 0 13.653333 1.706667 10.24 1.706667 20.48 6.826667 29.013334 11.946667 5.12 3.413333 8.533333 8.533333 13.653333 13.653333 5.12 6.826667 6.826667 13.653333 10.24 20.48 3.413333 13.653333 6.826667 29.013333 5.12 44.373333 1.706667 1.706667 3.413333 3.413333 3.413333 6.826667 1.706667 1.706667 1.706667 5.12 1.706667 6.826667 0 3.413333 0 6.826667-1.706667 10.24-1.706667 5.12-3.413333 8.533333-6.826666 11.946666-3.413333 1.706667-5.12 1.706667-6.826667 1.706667-1.706667 3.413333-1.706667 6.826667-3.413333 10.24-1.706667 3.413333-1.706667 5.12-3.413334 8.533333-1.706667 1.706667-3.413333 5.12-5.12 5.12-3.413333 3.413333-6.826667 5.12-8.533333 8.533334-3.413333 3.413333-5.12 6.826667-5.12 11.946666v8.533334c0 3.413333 0 5.12 1.706667 6.826666 1.706667 3.413333 3.413333 5.12 5.12 6.826667 3.413333 3.413333 6.826667 5.12 10.24 6.826667 5.12 3.413333 11.946667 6.826667 18.773333 8.533333 6.826667 1.706667 13.653333 3.413333 20.48 6.826667 6.826667 1.706667 11.946667 5.12 17.066667 10.24 5.12 5.12 8.533333 10.24 8.533333 17.066666 1.706667 13.653333 3.413333 23.893333 1.706667 32.426667z" fill="#FF6600" p-id="5526"></path><path d="M512 0C228.693333 0 0 228.693333 0 512s228.693333 512 512 512 512-228.693333 512-512S795.306667 0 512 0z m0 1006.933333C238.933333 1006.933333 17.066667 785.066667 17.066667 512S238.933333 17.066667 512 17.066667s494.933333 221.866667 494.933333 494.933333-221.866667 494.933333-494.933333 494.933333z" fill="#FF6600" p-id="5527"></path></svg>