<?xml version="1.0" encoding="utf-8"?>
<svg version="1.1" xmlns:xlink="http://www.w3.org/1999/xlink" width="17px" height="17px" xmlns="http://www.w3.org/2000/svg">
  <g transform="matrix(1 0 0 1 -1211 -299 )">
    <path d="M 8.5 6.39147287645349  C 9.92716048726852 6.39147287645349  11.0185185185185 7.76201552034884  11.0185185185185 9.55426357412791  C 11.0185185185185 11.346511627907  9.92716048726852 12.7170542718023  8.5 12.7170542718023  C 7.07283951273148 12.7170542718023  5.98148148148148 11.346511627907  5.98148148148148 9.55426357412791  C 5.98148148148148 7.76201552034884  7.07283951273148 6.39147287645349  8.5 6.39147287645349  Z M 16.8950617349537 13.2441860465116  C 16.8950617546296 12.9279069767442  16.7271605069444 12.7170542718023  16.4753086354167 12.7170542718023  L 14.3765432164352 12.7170542718023  L 14.3765432164352 10.0813953488372  C 14.3765432164352 9.76511627906977  14.2086419884259 9.55426357412791  13.9567901168981 9.55426357412791  C 13.7049382453704 9.55426357412791  13.537037037037 9.76511627906977  13.537037037037 10.0813953488372  L 13.537037037037 12.7170542718023  L 11.4382715983796 12.7170542718023  C 11.1864197465278 12.7170542718023  11.0185185185185 12.9279069767442  11.0185185185185 13.2441860465116  C 11.0185185185185 13.5604651162791  11.1864197465278 13.7713178212209  11.4382715983796 13.7713178212209  L 13.537037037037 13.7713178212209  L 13.537037037037 16.406976744186  C 13.537037037037 16.7232558139535  13.7049382650463 16.9341085188953  13.9567901168981 16.9341085188953  C 14.20864196875 16.9341085188953  14.3765431967593 16.7232558139535  14.3765432164352 16.406976744186  L 14.3765432164352 13.7713178212209  L 16.4753086354167 13.7713178212209  C 16.7271604872685 13.7713178212209  16.8950617152778 13.5604651162791  16.8950617349537 13.2441860465116  Z M 16.8950617349537 5.33720930232558  C 16.8950617349537 4.17751938808139  16.1395061793981 3.22868217877907  15.2160493761574 3.22868217877907  L 12.6975308576389 3.22868217877907  L 12.6975308576389 2.17441860465116  C 12.6975308576389 1.01472869040698  11.9419753020833 0.0658914811046516  11.0185185185185 0.0658914811046516  L 5.98148148148148 0.0658914811046516  C 5.05802469791667 0.0658914811046516  4.30246914236111 1.01472869040698  4.30246914236111 2.17441860465116  L 4.30246914236111 3.22868217877907  L 1.78395062384259 3.22868217877907  C 0.860493840277777 3.22868217877907  0.104938284722222 4.17751938808139  0.104938265046296 5.33720930232558  L 0.104938265046296 14.8255813953488  C 0.104938265046296 15.985271309593  0.860493820601852 16.9341085188953  1.78395062384259 16.9341085188953  L 9.75925925925926 16.9341085188953  C 10.0111111111111 16.9341085188953  10.1790123391204 16.7232558139535  10.1790123391204 16.406976744186  C 10.1790123391204 16.0906976744186  10.0111111111111 15.8798449694767  9.75925925925926 15.8798449694767  L 1.78395062384259 15.8798449694767  C 1.28024692013889 15.8798449694767  0.944444444444444 15.4581395348837  0.944444444444444 14.8255813953488  L 0.944444444444444 5.33720930232558  C 0.944444444444444 4.7046511627907  1.28024692013889 4.28294572819767  1.78395062384259 4.28294572819767  L 4.30246914236111 4.28294572819767  C 4.80617284606481 4.28294572819767  5.14197532175926 3.86124029360465  5.14197530208333 3.22868217877907  L 5.14197530208333 2.17441860465116  C 5.14197530208333 1.54186046511628  5.47777777777778 1.12015503052326  5.98148148148148 1.12015503052326  L 11.0185185185185 1.12015503052326  C 11.5222222222222 1.12015503052326  11.8580246979167 1.54186046511628  11.8580246979167 2.17441860465116  L 11.8580246979167 3.22868217877907  C 11.8580246979167 3.86124031831395  12.1938271736111 4.28294575290698  12.6975308576389 4.28294572819768  L 15.2160493761574 4.28294572819768  C 15.7197530798611 4.28294572819768  16.0555555555556 4.7046511627907  16.0555555555556 5.33720930232558  L 16.0555555555556 7.9728682252907  C 16.0555555555556 8.28914729505814  16.2234567835648 8.5  16.4753086354167 8.5  C 16.7271604872685 8.5  16.8950617152778 8.28914729505814  16.8950617349537 7.9728682252907  L 16.8950617349537 5.33720930232558  Z " fill-rule="nonzero" fill="#aaaaaa" stroke="none" transform="matrix(1 0 0 1 1211 299 )" />
  </g>
</svg>