<?xml version="1.0" encoding="utf-8"?>
<svg version="1.1" xmlns:xlink="http://www.w3.org/1999/xlink" width="12px" height="15px" xmlns="http://www.w3.org/2000/svg">
  <g transform="matrix(1 0 0 1 -38 -209 )">
    <path d="M 9.651 4.15540540540541  C 9.651 6.43243243243243  8.007 8.28040540540541  5.988 8.28040540540541  C 3.969 8.28040540540541  2.325 6.42905405405405  2.325 4.15540540540541  C 2.325 1.88175675675676  3.969 0.0304054054054054  5.988 0.0304054054054054  C 8.007 0.0304054054054054  9.651 1.87837837837838  9.651 4.15540540540541  Z M 8.811 4.15540540540541  C 8.811 2.40202702702703  7.545 0.976351351351352  5.988 0.976351351351352  C 4.431 0.976351351351352  3.165 2.40202702702703  3.165 4.15540540540541  C 3.165 5.90878378378379  4.431 7.33445945945946  5.988 7.33445945945946  C 7.545 7.33445945945946  8.811 5.90878378378379  8.811 4.15540540540541  Z M 11.901 13.7263513513514  C 11.898 14.3581081081081  11.442 14.875  10.878 14.875  L 1.098 14.875  C 0.537000000000001 14.875  0.0780000000000007 14.3581081081081  0.0780000000000007 13.7263513513514  C 0.0780000000000007 10.9594594594595  2.076 8.70945945945946  4.533 8.70945945945946  L 7.446 8.70945945945946  C 9.903 8.70945945945946  11.901 10.9594594594595  11.901 13.7263513513514  Z M 7.443 9.6554054054054  L 4.533 9.65540540540541  C 3.573 9.65540540540541  2.667 10.0810810810811  1.98 10.8513513513514  C 1.296 11.6216216216216  0.918 12.6418918918919  0.918 13.7263513513514  C 0.918 13.8378378378378  0.999 13.9290540540541  1.098 13.9290540540541  L 10.878 13.9290540540541  C 10.977 13.9290540540541  11.058 13.8378378378378  11.058 13.7263513513514  C 11.058 12.6452702702703  10.68 11.625  9.996 10.8513513513513  C 9.312 10.0810810810811  8.406 9.6554054054054  7.443 9.6554054054054  Z " fill-rule="nonzero" fill="#ffffff" stroke="none" transform="matrix(1 0 0 1 38 209 )" />
  </g>
</svg>