<?xml version="1.0" encoding="utf-8"?>
<svg version="1.1" xmlns:xlink="http://www.w3.org/1999/xlink" width="17px" height="15px" xmlns="http://www.w3.org/2000/svg">
  <g transform="matrix(1 0 0 1 -36 -258 )">
    <path d="M 14.3264113494699 7.12634076739532  L 16.2427151042132 6.0201515979064  C 16.6155401223028 5.80546895705049  16.8318291174665 5.4719734020936  16.8318291174665 5.1040630734298  C 16.8318291174665 4.73615274476601  16.6180648816034 4.40265718980911  16.2427151042132 4.18797456357759  L 9.39636860677083 0.254857495381773  C 8.83671028892299 -0.0679858628386703  7.99511882854353 -0.0679858628386703  7.43293573637463 0.254038091133005  L 0.589114013253348 4.18797456357759  C 0.213764220842634 4.4026572044335  0 4.73615275939039  0 5.1040630734298  C 0 5.47197338746921  0.213764235863095 5.80546895705049  0.589114013253348 6.0201515979064  L 2.42041702250744 7.07389920258621  L 2.44061521707589 12.4262160206281  C 2.44236089509145 13.1151868819406  2.86195422610581 13.7381052182668  3.51027796279762 14.0142120366379  C 5.03107122469534 14.6596260402778  6.67277132521084 14.9910819449739  8.33175540969122 14.9876585075431  C 10.1185303287202 14.9889961454562  11.8818764222816 14.5918085887762  13.4865030819847 13.8265695751232  C 13.967729892924 13.5947693139804  14.2751561504497 13.1201609381183  14.2826486045852 12.5974704849138  L 14.3264113494699 7.12634076739532  Z M 1.52075576776414 5.1040630734298  L 8.08601070410156 1.33154828740763  C 8.29566761772765 1.23896180390794  8.53616149973887 1.23896180390794  8.74581841336496 1.33154828740763  L 15.3102317682757 5.10078547105911  L 8.74581841336496 8.87002266933498  C 8.53616149973887 8.96260915283467  8.29566761772765 8.96260915283467  8.08601070410156 8.87002266933498  L 3.50607001060268 6.24466703125  C 3.43469368061569 6.1774233675082  3.34826947680893 6.12721668973333  3.25359256347656 6.09799453355911  L 1.52075576776414 5.1040630734298  Z M 13.0337268820685 7.86953601908867  L 12.9958552672526 12.5843601046798  C 12.9966081835797 12.6336485355432  12.9685478579731 12.6790766312795  12.9234783933687 12.7015342102833  C 11.4957820609147 13.38781458262  9.92396171193031 13.7420779219253  8.33175540969122 13.7364356342365  C 6.84942470431708 13.7398022986387  5.38249035429531 13.4437726242541  4.02364874641927 12.8670528887007  C 3.84336199456206 12.7883589871918  3.72759246383873 12.6136640258638  3.72825015085565 12.4212996243842  L 3.70889355273437 7.81381685190887  L 7.43293573637463 9.95818506234606  C 8.04646146855926 10.2804440559424  8.78536764890726 10.2804440559424  9.39889338109189 9.95818506234606  L 13.0337268820685 7.86953601908867  Z M 16.8116309228981 7.27219386083744  C 16.8111665601464 6.92677197167285  16.5234324216835 6.64699182311103  16.1686550524554 6.6469921189963  C 15.814014085584 6.6469921189963  15.5265207784598 6.92690446670337  15.5265207784598 7.27219384621305  L 15.5265207784598 12.6941596159175  C 15.5390385799544 13.030868455808  15.82302133623 13.2975357364731  16.1690758506789 13.2975357364731  C 16.5151303651279 13.2975357364731  16.7991131214034 13.030868455808  16.8116309228981 12.6941596159175  L 16.8116309228981 7.27219386083744  Z " fill-rule="nonzero" fill="#ffffff" stroke="none" transform="matrix(1 0 0 1 36 258 )" />
  </g>
</svg>