<?xml version="1.0" encoding="utf-8"?>
<svg version="1.1" xmlns:xlink="http://www.w3.org/1999/xlink" width="4px" height="4px" xmlns="http://www.w3.org/2000/svg">
  <g transform="matrix(1 0 0 1 -42 -462 )">
    <path d="M 2 2.85714285714286  C 2.47338692842639 2.85714285714286  2.85714285714286 2.47338692842639  2.85714285714286 2  C 2.85714285714286 1.52661307157361  2.47338692842639 1.14285714285714  2 1.14285714285714  C 1.5266130715736 1.14285714285714  1.14285714285714 1.52661307157361  1.14285714285714 2  C 1.14285714285714 2.47338692842639  1.5266130715736 2.85714285714286  2 2.85714285714286  Z M 2 0  C 3.10456949966159 0  4 0.895430500338413  4 2  C 4 3.10456949966159  3.10456949966159 4  2 4  C 0.895430500338413 4  0 3.10456949966159  0 2  C 0 0.895430500338412  0.895430500338413 0  2 0  Z " fill-rule="nonzero" fill="#ffffff" stroke="none" transform="matrix(1 0 0 1 42 462 )" />
  </g>
</svg>