<?xml version="1.0" encoding="utf-8"?>
<svg version="1.1" xmlns:xlink="http://www.w3.org/1999/xlink" width="9px" height="11px" xmlns="http://www.w3.org/2000/svg">
  <g transform="matrix(1 0 0 1 -39 -460 )">
    <path d="M 2.08125016518338 8.72864864864865  C 0.787795954260024 7.89061279239567  -0.000475143166325414 6.40202731102876  0 4.79837837837838  C 0.0308863644286602 2.20217285399769  2.04386381890918 0.122217000922888  4.50000010743634 0.148648648648649  C 6.9561363959635 0.122217000922889  8.96911385044402 2.20217285399769  9 4.79837837837838  C 8.98983481731794 6.46730170995999  8.13000927111624 8.00104461277533  6.75000005371817 8.81189189189189  L 4.97250009615553 10.6313513513514  C 4.68434027951029 10.9274017716573  4.22565993751112 10.9274017716573  3.93750012086589 10.6313513513514  L 2.08125016518338 8.72864864864865  Z M 2.84062514705349 7.85459459459459  L 4.50000010743635 9.50162162162162  L 6.09750006929644 7.87837837837838  L 6.1650000676849 7.8427027027027  C 7.20434297682588 7.23707749394777  7.85058187288093 6.08261922468799  7.85250002739627 4.82810810810811  C 7.84019848053476 2.89662582607293  6.35546794360807 1.33771140066031  4.52820044234083 1.33771140066031  C 4.5188002038715 1.33771140066031  4.50940000768105 1.33775354676526  4.50000010743634 1.33783783783784  C 4.4829998401359 1.33756209498104  4.46599782175665 1.33742421746684  4.44899555321078 1.33742421746684  C 2.63258165223059 1.33742421746684  1.15244751311475 2.87854441911198  1.1250001880136 4.79837837837838  C 1.12263684166024 6.02135158349757  1.73528059536048 7.15351839953259  2.73375014960511 7.77135135135135  L 2.79000014826215 7.80702702702703  L 2.84062514705349 7.85459459459459  Z " fill-rule="nonzero" fill="#ffffff" stroke="none" transform="matrix(1 0 0 1 39 460 )" />
  </g>
</svg>