<?xml version="1.0" encoding="utf-8"?>
<svg version="1.1" xmlns:xlink="http://www.w3.org/1999/xlink" width="15px" height="6px" xmlns="http://www.w3.org/2000/svg">
  <g transform="matrix(1 0 0 1 -36 -468 )">
    <path d="M 13.5056603773585 4.71428571428571  L 12.3735849056604 1.28571428571429  L 10.8962264150943 1.28571428571429  C 10.5836124057562 1.28571428571429  10.3301886792453 1.02987699990331  10.3301886792453 0.714285714285714  C 10.3301886792453 0.398694428668118  10.5836124057562 0.142857142857143  10.8962264150943 0.142857142857143  L 12.7811320754717 0.142857142857143  C 13.0348032215919 0.129490589949441  13.266229855361 0.288359463873949  13.3471698113208 0.531428571428571  L 14.8584905660377 5.10285714285714  C 14.8783783957011 5.16200910303081  14.8885241932889 5.2240528344568  14.8885241932889 5.28651922430467  C 14.8885241932889 5.60211050992227  14.6351004667781 5.85794779573324  14.3224864574399 5.85794779573324  C 14.3124699569197 5.85794779573324  14.3024552210402 5.85767938834726  14.2924528301887 5.85714285714286  L 0.707547169811321 5.85714285714286  C 0.697544778959839 5.85767938834726  0.687530043080264 5.85794779573324  0.677513542560116 5.85794779573324  C 0.364899533221931 5.85794779573324  0.111475806711059 5.60211050992227  0.111475806711059 5.28651922430467  C 0.111475806711059 5.2240528344568  0.121621604298867 5.16200910303081  0.141509433962264 5.10285714285714  L 1.65283018867925 0.531428571428571  C 1.73377014463901 0.288359463873949  1.96519677840807 0.129490589949441  2.2188679245283 0.142857142857143  L 4.10377358490566 0.142857142857143  C 4.41638759424385 0.142857142857143  4.66981132075472 0.398694428668118  4.66981132075472 0.714285714285714  C 4.66981132075472 1.02987699990331  4.41638759424385 1.28571428571429  4.10377358490566 1.28571428571429  L 2.62641509433962 1.28571428571429  L 1.49433962264151 4.71428571428571  L 13.5056603773585 4.71428571428571  Z " fill-rule="nonzero" fill="#ffffff" stroke="none" transform="matrix(1 0 0 1 36 468 )" />
  </g>
</svg>