<?xml version="1.0" encoding="utf-8"?>
<svg version="1.1" xmlns:xlink="http://www.w3.org/1999/xlink" width="16px" height="14px" xmlns="http://www.w3.org/2000/svg">
  <g transform="matrix(1 0 0 1 -36 -512 )">
    <path d="M 13.6387755102041 2.8688202247191  C 13.6387755102041 4.37696629213483  12.365306122449 5.6058988764045  10.7979591836735 5.6058988764045  L 10.7979591836735 5.01601123595506  C 12.0265306122449 5.01601123595506  13.0265306122449 4.05252808988764  13.0265306122449 2.8688202247191  C 13.0265306122449 1.68511235955056  12.0265306122449 0.721629213483147  10.7979591836735 0.721629213483147  C 9.8530612244898 0.721629213483147  9.00612244897959 1.2997191011236  8.69387755102041 2.15702247191011  L 8.11632653061224 1.9623595505618  C 8.51428571428572 0.867134831460676  9.59183673469388 0.131741573033709  10.7979591836735 0.131741573033709  C 12.365306122449 0.131741573033709  13.6387755102041 1.36067415730337  13.6387755102041 2.8688202247191  Z M 14.5020408163265 7.19269662921348  C 15.4551020408163 8.55730337078652  15.9816326530612 10.3682584269663  15.9816326530612 12.2912921348315  L 15.369387755102 12.2912921348315  C 15.369387755102 10.4842696629213  14.8795918367347 8.79129213483146  13.9938775510204 7.52106741573034  C 13.130612244898 6.28623595505618  11.9959183673469 5.60786516853933  10.8 5.60786516853933  C 10.6489795918367 5.60786516853933  10.4959183673469 5.61966292134831  10.3469387755102 5.64129213483146  L 10.2551020408163 5.05730337078652  C 10.434693877551 5.03174157303371  10.6183673469388 5.01797752808989  10.8 5.01797752808989  C 11.5163265306122 5.01797752808989  12.2102040816327 5.2185393258427  12.8612244897959 5.61179775280899  C 13.4775510204082 5.98539325842697  14.030612244898 6.51629213483146  14.5020408163265 7.19269662921348  Z M 5.22448979591837 5.01601123595506  L 5.22448979591837 5.6058988764045  C 3.65714285714286 5.6058988764045  2.38367346938776 4.37696629213483  2.38367346938776 2.8688202247191  C 2.38367346938776 1.36067415730337  3.65714285714286 0.131741573033708  5.22448979591837 0.131741573033708  C 6.44897959183673 0.131741573033708  7.53265306122449 0.882865168539325  7.92040816326531 2.00168539325843  L 7.33877551020408 2.18848314606741  C 7.03469387755102 1.31151685393258  6.18571428571429 0.721629213483145  5.22448979591837 0.721629213483145  C 3.99591836734694 0.721629213483145  2.99591836734694 1.68511235955056  2.99591836734694 2.8688202247191  C 2.99591836734694 4.05252808988764  3.99591836734694 5.01601123595506  5.22448979591837 5.01601123595506  Z M 2.03061224489796 7.51713483146068  C 1.14285714285714 8.78932584269663  0.653061224489796 10.4842696629213  0.653061224489796 12.2912921348315  L 0.0408163265306122 12.2912921348315  C 0.0408163265306122 10.3682584269663  0.56734693877551 8.55730337078652  1.52244897959184 7.19073033707865  C 1.99387755102041 6.51629213483146  2.5469387755102 5.98342696629214  3.16326530612245 5.60983146067416  C 3.81428571428571 5.21657303370787  4.50816326530612 5.01601123595506  5.22448979591837 5.01601123595506  C 5.35510204081633 5.01601123595506  5.48571428571429 5.02191011235955  5.61632653061224 5.03567415730337  L 5.55102040816327 5.62162921348315  C 5.44285714285714 5.60983146067416  5.33469387755102 5.60393258426967  5.22448979591837 5.60393258426967  C 4.0265306122449 5.60393258426967  2.89183673469388 6.28426966292135  2.03061224489796 7.51713483146068  Z M 10.9020408163265 4.50280898876404  C 10.9020408163265 6.01292134831461  9.62857142857143 7.23988764044944  8.06122448979592 7.23988764044944  C 6.49387755102041 7.23988764044944  5.22040816326531 6.01095505617978  5.22040816326531 4.50280898876405  C 5.22040816326531 2.99466292134832  6.49387755102041 1.76573033707865  8.06122448979592 1.76573033707865  C 9.62857142857143 1.76573033707865  10.9020408163265 2.99269662921348  10.9020408163265 4.50280898876404  Z M 10.2897959183673 4.50280898876405  C 10.2897959183673 3.31910112359551  9.28979591836735 2.35561797752809  8.06122448979592 2.35561797752809  C 6.83265306122449 2.35561797752809  5.83265306122449 3.31910112359551  5.83265306122449 4.50280898876405  C 5.83265306122449 5.68651685393259  6.83265306122449 6.65  8.06122448979592 6.65  C 9.28979591836735 6.65  10.2897959183673 5.68651685393259  10.2897959183673 4.50280898876405  Z M 11.7632653061224 8.8247191011236  C 12.7183673469388 10.1912921348315  13.2448979591837 12.0022471910112  13.2448979591837 13.9252808988764  L 12.6326530612245 13.9252808988764  C 12.6326530612245 12.1182584269663  12.1428571428571 10.4252808988764  11.2571428571429 9.15505617977528  C 10.3938775510204 7.92022471910113  9.25918367346939 7.24185393258427  8.06326530612245 7.24185393258427  C 6.86734693877551 7.24185393258427  5.73061224489796 7.92219101123596  4.86938775510204 9.15505617977528  C 3.97959183673469 10.4233146067416  3.48979591836735 12.1182584269663  3.48979591836735 13.9252808988764  L 2.87755102040816 13.9252808988764  C 2.87755102040816 12.0022471910112  3.40408163265306 10.1912921348315  4.35918367346939 8.8247191011236  C 4.83061224489796 8.15028089887641  5.38367346938776 7.61741573033708  6 7.2438202247191  C 6.65102040816326 6.85056179775281  7.34489795918367 6.65  8.06122448979592 6.65  C 8.77755102040816 6.65  9.47142857142857 6.85056179775281  10.1224489795918 7.2438202247191  C 10.7387755102041 7.61741573033708  11.2918367346939 8.14831460674158  11.7632653061224 8.8247191011236  Z " fill-rule="nonzero" fill="#ffffff" stroke="none" transform="matrix(1 0 0 1 36 512 )" />
  </g>
</svg>