<?xml version="1.0" encoding="utf-8"?>
<svg version="1.1" xmlns:xlink="http://www.w3.org/1999/xlink" width="17px" height="12px" xmlns="http://www.w3.org/2000/svg">
  <g transform="matrix(1 0 0 1 -36 -562 )">
    <path d="M 15.8889799588676 11.7957144926822  C 15.6910733640846 11.8707533434711  15.4801892939092 11.9085681978663  15.2634653610746 12  L 1.60726182620815 12  C 1.18258661126893 11.909800518492  0.774356398614741 11.7591566581009  0.470434459698683 11.4890596515101  C 0.324412638471434 11.3589763862312  0.207604646664201 11.2042468842855  0.126531209721932 11.0335088132231  C 0.0428569964657988 10.8574364049637  -0.000209687745472139 10.667590655096  0 10.4757396906987  L 0 1.52425440072126  C 0 1.33104412273479  0.0428264566887362 1.14315156676183  0.126531209721932 0.966485278196844  C 0.207640462607327 0.795727569646882  0.323140054431071 0.642695578061608  0.470434459698682 0.510934439909842  C 0.77435639861474 0.240837433319045  1.18258661126893 0.0901935729279671  1.60726182620815 0  L 15.2634653610746 0  C 15.6879161643736 0.0903485398382072  16.095882371533 0.24098095526622  16.3996438525471 0.510934439909842  C 16.5475871328517 0.642695578061608  16.6630867246754 0.795727569646882  16.7441959775608 0.966485278196844  C 16.827900730594 1.14315155522164  16.8707264196661 1.33104412273479  16.8707264196661 1.52425440072126  L 16.8707264196661 10.4757396906987  C 16.8707264196661 10.6689499686852  16.827900730594 10.8568425246582  16.7441959775608 11.0335088132231  C 16.5777179556906 11.378486101241  16.2713179113148 11.6515631354698  15.8889799588676 11.7957144926822  Z M 15.2634653610746 1  L 1.60726182620815 1  C 1.16472971002169 0.808726434139744  0.804604609467858 1.12956184426747  0.804604609467858 1.52425440072126  L 0.804604609467858 10.4757396906987  C 0.804604609467858 10.8704322471525  1.16472971002169 11.1912676572802  1.60726182620815 11  L 15.2634653610746 11  C 15.7059974772611 11.1912676572802  16.0661225778149 10.8704322471525  16.0661225778149 10.4757396906987  L 16.0661225778149 1.52425440072126  C 16.0661225778149 1.12956184426747  15.7059974772611 0.808726434139744  15.2634653610746 1  Z M 0.402302682205615 4  L 0.402302682205615 3.30332517746056  L 16.4684245050772 3.30332517746056  L 16.4684245050772 4  L 0.402302682205615 4  Z M 15.2764428491403 7.59944725541698  L 15.2764428491403 10.4875568391886  L 10.0413269084956 10.4875568391886  L 10.0413269084956 7.59944725541698  L 15.2764428491403 7.59944725541698  Z M 10.8459307376734 8.31674779600301  L 10.8459307376734 9.77025629860255  L 14.4718390072891 9.77025629860255  L 14.4718390072891 8.31674779600301  L 10.8459307376734 8.31674779600301  Z " fill-rule="nonzero" fill="#ffffff" stroke="none" transform="matrix(1 0 0 1 36 562 )" />
  </g>
</svg>