<?xml version="1.0" encoding="utf-8"?>
<svg version="1.1" xmlns:xlink="http://www.w3.org/1999/xlink" width="13px" height="14px" xmlns="http://www.w3.org/2000/svg">
  <g transform="matrix(1 0 0 1 -37 -359 )">
    <path d="M 12.93010753125 3.20338983050847  C 12.93010753125 2.66553671822034  12.5666666754032 2.25423728813559  12.0913978538306 2.25423728813559  L 7.25483870967742 2.25423728813559  C 6.94731182358871 2.25423728813559  6.66774193548387 2.06440677966102  6.52795698487903 1.77966101694915  L 5.88494624092742 0.514124298728814  C 5.74516129032258 0.229378536016949  5.46559140221774 0.0395480275423729  5.18602150100806 0.0395480275423729  L 0.908602146169355 0.0395480275423729  C 0.433333337701613 0.0395480275423728  0.06989246875 0.450847457627119  0 0.988700569915254  L 0 13.0112994300847  C 0.06989246875 13.5491525423729  0.433333324596774 13.9604519724576  0.908602146169355 14  L 12.0913978538306 14  C 12.5666666754032 13.9604519724576  12.93010753125 13.5491525423729  12.93010753125 13.0112994300847  L 12.93010753125 3.20338983050847  Z M 12.3709677419355 3.20338983050847  L 12.3709677419355 13.0112994300847  C 12.3709677419355 13.2011299385593  12.2591397893145 13.3276836059322  12.0913978538306 13.3276836207627  L 0.908602146169355 13.3276836207627  C 0.740860210685484 13.3276836207627  0.629032258064516 13.2011299533898  0.629032258064516 13.0112994300847  L 0.629032258064516 0.988700569915254  C 0.629032258064516 0.798870061440678  0.740860210685484 0.672316394067797  0.908602146169355 0.672316379237288  L 5.18602150100806 0.672316379237288  C 5.29784945362903 0.672316379237288  5.38172042137097 0.735593220338983  5.43763440423387 0.830508474576271  L 6.08064516129032 2.09604519279661  C 6.3043010796371 2.57062146398305  6.77956988810484 2.88700565466102  7.25483870967742 2.88700565466102  L 12.0913978538306 2.88700565466102  C 12.2591397893145 2.88700565466102  12.3709677419355 3.0135593220339  12.3709677419355 3.20338983050847  Z " fill-rule="nonzero" fill="#ffffff" stroke="none" transform="matrix(1 0 0 1 37 359 )" />
  </g>
</svg>