<?xml version="1.0" encoding="utf-8"?>
<svg version="1.1" xmlns:xlink="http://www.w3.org/1999/xlink" width="13px" height="14px" xmlns="http://www.w3.org/2000/svg">
  <g transform="matrix(1 0 0 1 -37 -408 )">
    <path d="M 11.0507027027027 2.14124731182796  C 11.0507027027027 2.25686021505376  10.9607567567568 2.33393548387097  10.8483243243243 2.33393548387097  L 5.29416216216216 2.33393548387097  C 5.15924324324324 2.33393548387097  5.0692972972973 2.25686021505376  5.0692972972973 2.14124731182796  C 5.0692972972973 2.02563440860215  5.15924324324324 1.94855913978495  5.29416216216216 1.94855913978495  L 10.8258378378378 1.94855913978495  C 10.9607567567568 1.94855913978495  11.0507027027027 2.02563440860215  11.0507027027027 2.14124731182796  Z M 9.92637837837838 11.679311827957  C 9.2292972972973 12.1417634408602  8.35232432432433 12.3729892473118  7.52032432432433 12.3729892473118  C 6.35102702702703 12.3729892473118  5.20421621621622 11.9490752688172  4.37221621621622 11.1397849462366  L 2.16854054054054 8.98167741935484  C 0.729405405405407 7.57505376344086  0.796864864864866 5.49402150537634  2.28097297297297 4.14520430107527  C 2.48335135135135 3.95251612903226  2.79816216216216 3.85617204301075  3.09048648648649 3.85617204301075  C 3.4052972972973 3.85617204301075  3.67513513513514 3.97178494623656  3.87751351351351 4.16447311827957  L 4.79945945945946 5.07010752688172  C 5.13675675675676 5.39767741935484  5.09178378378378 5.89866666666667  4.70951351351351 6.18769892473118  L 3.58518918918919 7.03552688172043  C 3.47275675675676 7.11260215053763  3.4052972972973 7.24748387096774  3.38281081081081 7.36309677419355  C 3.36032432432432 7.47870967741936  3.42778378378378 7.61359139784946  3.51772972972973 7.70993548387097  L 6.0587027027027 10.2148817204301  C 6.14864864864865 10.3112258064516  6.30605405405405 10.3690322580645  6.44097297297297 10.3883010752688  C 6.59837837837838 10.3883010752688  6.7332972972973 10.3497634408602  6.84572972972973 10.272688172043  L 7.97005405405405 9.42486021505376  C 8.14994594594595 9.28997849462366  8.3972972972973 9.21290322580645  8.64464864864865 9.23217204301075  C 8.892 9.25144086021505  9.11686486486487 9.34778494623656  9.27427027027027 9.50193548387097  L 10.1062702702703 10.3112258064516  C 10.3086486486487 10.5039139784946  10.3985945945946 10.7544086021505  10.3761081081081 11.0241720430108  C 10.3311351351351 11.293935483871  10.1737297297297 11.5251612903226  9.92637837837838 11.679311827957  Z M 3.06799999999999 4.24154838709677  C 3.09048648648648 4.24154838709677  3.09048648648648 4.24154838709677  3.068 4.24154838709677  C 2.88810810810811 4.24154838709677  2.7307027027027 4.29935483870968  2.59578378378378 4.41496774193548  C 1.24659459459459 5.60963440860215  1.20162162162162 7.45944086021506  2.48335135135135 8.73118279569892  L 4.68702702702703 10.8892903225806  C 5.96875675675676 12.1417634408602  8.10497297297297 12.3537204301075  9.67902702702703 11.3710107526882  C 9.83643243243243 11.2746666666667  9.92637837837838 11.1397849462366  9.94886486486486 10.9856344086022  C 9.97135135135135 10.8314838709677  9.92637837837838 10.6966021505376  9.79145945945946 10.5809892473118  L 8.95945945945946 9.77169892473118  C 8.86951351351351 9.69462365591398  8.75708108108108 9.63681720430107  8.64464864864865 9.63681720430107  C 8.50972972972973 9.63681720430107  8.39729729729729 9.65608602150538  8.30735135135135 9.73316129032258  L 7.18302702702702 10.5809892473118  C 6.98064864864864 10.7351397849462  6.71081081081081 10.8122150537634  6.44097297297297 10.7929462365591  C 6.17113513513513 10.7736774193548  5.92378378378378 10.6773333333333  5.74389189189189 10.5039139784946  L 3.20291891891891 7.99896774193548  C 3.02302702702702 7.82554838709677  2.93308108108108 7.59432258064516  2.95556756756756 7.36309677419355  C 2.97805405405405 7.13187096774193  3.09048648648648 6.91991397849462  3.29286486486486 6.76576344086021  L 4.41718918918918 5.91793548387097  C 4.61956756756756 5.76378494623656  4.64205405405405 5.51329032258064  4.46216216216216 5.33987096774193  L 3.54021621621621 4.43423655913978  C 3.42778378378378 4.31862365591398  3.27037837837837 4.24154838709677  3.06799999999999 4.24154838709677  Z M 12.8721081081081 12.3151827956989  C 12.8721081081081 13.1630107526882  12.0850810810811 13.856688172043  11.0956756756757 13.856688172043  L 1.80875675675676 13.856688172043  C 0.819351351351352 13.856688172043  0.0323243243243239 13.1822795698925  0 12.3344516129032  L 0 1.54391397849462  C 0.0323243243243239 0.696086021505377  0.819351351351352 0.0216774193548385  1.80875675675676 0.0216774193548385  L 11.0956756756757 0.0216774193548385  C 12.0850810810811 0.0216774193548385  12.8721081081081 0.696086021505376  12.8721081081081 1.54391397849462  L 12.8721081081081 12.3151827956989  Z M 11.0956756756757 0.40705376344086  L 1.80875675675676 0.40705376344086  C 1.0667027027027 0.40705376344086  0.482054054054054 0.927311827956989  0.482054054054054 1.54391397849462  L 0.482054054054054 12.3151827956989  C 0.482054054054054 12.9510537634409  1.08918918918919 13.4520430107527  1.80875675675676 13.4520430107527  L 11.0956756756757 13.4520430107527  C 11.8377297297297 13.4520430107527  12.4223783783784 12.9317849462366  12.4223783783784 12.3151827956989  L 12.4223783783784 1.54391397849462  C 12.4223783783784 0.908043010752688  11.8152432432432 0.40705376344086  11.0956756756757 0.40705376344086  Z M 11.0507027027027 3.37445161290323  C 11.0507027027027 3.49006451612903  10.9607567567568 3.56713978494624  10.8483243243243 3.56713978494624  L 5.29416216216216 3.56713978494624  C 5.15924324324324 3.56713978494624  5.0692972972973 3.49006451612903  5.0692972972973 3.37445161290323  C 5.0692972972973 3.25883870967742  5.15924324324324 3.18176344086021  5.29416216216216 3.18176344086021  L 10.8258378378378 3.18176344086021  C 10.9607567567568 3.18176344086021  11.0507027027027 3.25883870967742  11.0507027027027 3.37445161290323  Z M 11.0507027027027 4.58838709677419  C 11.0507027027027 4.704  10.9607567567568 4.7810752688172  10.8483243243243 4.7810752688172  L 5.29416216216216 4.7810752688172  C 5.15924324324324 4.7810752688172  5.0692972972973 4.704  5.0692972972973 4.58838709677419  C 5.0692972972973 4.47277419354839  5.15924324324324 4.39569892473118  5.29416216216216 4.39569892473118  L 10.8258378378378 4.39569892473118  C 10.9607567567568 4.39569892473118  11.0507027027027 4.47277419354839  11.0507027027027 4.58838709677419  Z " fill-rule="nonzero" fill="#ffffff" stroke="none" transform="matrix(1 0 0 1 37 408 )" />
  </g>
</svg>