<svg class="icon" viewBox="0 0 1024 1024" version="1.1" xmlns="http://www.w3.org/2000/svg" p-id="1964" height="128" width="128"><path d="M512.5 1007.9c-6.4 0-12.7-1.4-18.6-4.3-52.6-25.4-103.9-56.8-152.6-93.3C288.2 870.4 241 826.2 200.9 779c-44.6-52.6-79.5-108-103.7-164.9-27-63.4-40.7-128.5-40.7-193.6 0-46.2 3.1-60.4 7.5-80.1 2.8-12.8 6-27.4 9.5-56.9l1-8.7 6.3-6c35.1-33.2 64.2-100.5 72.5-123.6 3.6-10 11.3-17.9 21.2-21.8l1.4-0.5L499.3 18c8.7-2.8 17.8-2.8 26.5 0l324.1 105.2 0.7 0.3c9.9 3.9 17.6 11.8 21.2 21.8 8.3 23.1 37.4 90.4 72.5 123.6l7.5 7.1v10.3c0 8.3 2.2 18.4 5 31.2 5 23.1 11.9 54.8 11.9 102.9 0 65.1-13.7 130.2-40.7 193.6-24.2 56.8-59.1 112.3-103.7 164.9-40.1 47.2-87.3 91.4-140.4 131.3-48.6 36.6-100 68-152.6 93.3-6.1 2.9-12.4 4.4-18.8 4.4zM120.1 297.5c-3.4 26.5-6.6 41.2-9.3 53.3-4 17.9-6.3 28.7-6.3 69.7 0 235.4 204.5 439.9 408 538.8 203.5-98.9 408-303.4 408-538.8 0-42.9-6-70.6-10.8-92.8-2.4-11.1-4.5-21-5.5-30.9-40.4-42.6-68.2-110.5-75.7-130l-316-102.5-316 102.5c-7.5 19.6-35.6 88.1-76.4 130.7z" fill="#1037AC" p-id="1965"></path><path d="M528.5 465.5c-75 0-136-61-136-136s61-136 136-136 136 61 136 136-61 136-136 136z m0-224c-48.5 0-88 39.5-88 88s39.5 88 88 88 88-39.5 88-88-39.5-88-88-88zM318.3 640.2l-40.6-25.5c22-35 55.4-64.5 96.4-85.2 41.5-20.9 89.4-32 138.5-32 52.9 0 103.9 12.7 147.5 36.7l-23.2 42c-36.5-20.1-79.5-30.8-124.4-30.8-81.9 0.1-158.1 37.3-194.2 94.8z" fill="#7A7EF5" p-id="1966"></path><path d="M487 766.3c-5 0-10.1-1.6-14.4-4.8L226.7 576.3c-10.6-8-12.7-23-4.7-33.6 8-10.6 23-12.7 33.6-4.7L484 709.9l335.8-370.8c8.9-9.8 24.1-10.6 33.9-1.7 9.8 8.9 10.6 24.1 1.7 33.9l-350.5 387c-4.8 5.3-11.3 8-17.9 8z" fill="#1037AC" p-id="1967"></path></svg>