<?xml version="1.0" encoding="utf-8"?>
<svg version="1.1" xmlns:xlink="http://www.w3.org/1999/xlink" width="10px" height="10px" xmlns="http://www.w3.org/2000/svg">
  <g transform="matrix(1 0 0 1 -20 -401 )">
    <path d="M 0.0617283912037037 5  C 0.0617283912037037 2.27271605324074  2.27271605324074 0.0617283912037037  5 0.0617283912037037  C 7.72728394675926 0.0617283912037037  9.9382716087963 2.27271604166667  9.9382716087963 5  C 9.9382716087963 7.72728395833333  7.72728394675926 9.9382716087963  5 9.9382716087963  C 2.27271605324074 9.9382716087963  0.0617283912037037 7.72728394675926  0.0617283912037037 5  Z M 5 6.3580246875  C 4.72726678807629 6.3580246875  4.50617283564815 6.57911863992814  4.50617283564815 6.85185185185185  C 4.50617283564815 7.12458506377557  4.72726678807629 7.3456790162037  5 7.3456790162037  C 5.27273321192371 7.3456790162037  5.49382716435185 7.12458506377556  5.49382716435185 6.85185185185185  C 5.49382716435185 6.57911863992814  5.27273321192371 6.3580246875  5 6.3580246875  Z M 5.49382716435185 2.6543209837963  C 5.49382715795967 2.38158777639254  5.27273320740376 2.16049383101852  5 2.16049383101852  C 4.72726679259624 2.16049383101852  4.50617284204033 2.38158777639254  4.50617283564815 2.6543209837963  L 4.50617283564815 5.37037037037037  C 4.50617283564815 5.64310358229408  4.72726678807629 5.86419753472222  5 5.86419753472222  C 5.27273321192371 5.86419753472222  5.49382716435185 5.64310358229408  5.49382716435185 5.37037037037037  L 5.49382716435185 2.6543209837963  Z " fill-rule="nonzero" fill="#d9001b" stroke="none" transform="matrix(1 0 0 1 20 401 )" />
  </g>
</svg>