<?xml version="1.0" encoding="utf-8"?>
<svg version="1.1" xmlns:xlink="http://www.w3.org/1999/xlink" width="28px" height="28px" xmlns="http://www.w3.org/2000/svg">
  <g transform="matrix(1 0 0 1 -438 -70 )">
    <path d="M 27.96865234375 13.55146484375  C 27.96865234375 6.08603515625  21.9169921875 0.0343750000000003  14.4515625 0.0343750000000003  C 6.9861328125 0.0343750000000003  0.934472656249999 6.08603515625  0.934472656249999 13.55146484375  C 0.934472656249999 21.01689453125  6.9861328125 27.0685546875  14.4515625 27.0685546875  C 21.9169921875 27.0685546875  27.96865234375 21.01689453125  27.96865234375 13.55146484375  Z M 21.22978515625 17.677734375  C 21.959375 18.40732421875  21.959375 19.603125  21.22978515625 20.33271484375  C 20.5001953125 21.0623046875  19.307421875 21.0623046875  18.57783203125 20.33271484375  L 14.4515625 16.2064453125  L 10.322265625 20.33271484375  C 9.59267578125 21.0623046875  8.39990234375 21.0623046875  7.6703125 20.33271484375  C 6.94072265625 19.603125  6.94072265625 18.4103515625  7.6703125 17.68076171875  L 11.79658203125 13.5544921875  L 7.6703125 9.4251953125  C 6.94072265625 8.69560546875  6.94072265625 7.50283203125  7.6703125 6.7732421875  C 8.39990234375 6.04365234375  9.59267578125 6.04365234375  10.322265625 6.7732421875  L 14.44853515625 10.89951171875  L 18.5748046875 6.7732421875  C 19.30439453125 6.04365234375  20.49716796875 6.04365234375  21.2267578125 6.7732421875  C 21.95634765625 7.50283203125  21.95634765625 8.69560546875  21.2267578125 9.4251953125  L 17.103515625 13.55146484375  L 21.22978515625 17.677734375  Z " fill-rule="nonzero" fill="#7f7f7f" stroke="none" transform="matrix(1 0 0 1 438 70 )" />
  </g>
</svg>