<?xml version="1.0" encoding="utf-8"?>
<svg version="1.1" xmlns:xlink="http://www.w3.org/1999/xlink" width="17px" height="17px" xmlns="http://www.w3.org/2000/svg">
  <g transform="matrix(1 0 0 1 -900 -613 )">
    <path d="M 0.104931712962963 8.5  C 0.104931712962963 3.86354513888889  3.86356481481481 0.104931712962963  8.5 0.104931712962963  C 13.1364548611111 0.104931712962963  16.895068287037 3.86354513888889  16.895068287037 8.5  C 16.895068287037 13.1364548611111  13.1364548611111 16.895068287037  8.5 16.895068287037  C 3.86354513888889 16.895068287037  0.104931712962963 13.1364351851852  0.104931712962963 8.5  Z M 15.6358090277778 8.5  C 15.6358090277778 4.55901041666666  12.4409895833333 1.36419097222222  8.5 1.36419097222222  C 4.55901041666667 1.36419097222222  1.36419097222222 4.55901041666667  1.36419097222222 8.5  C 1.36419097222222 12.4409895833333  4.55901041666667 15.6358090277778  8.5 15.6358090277778  C 12.4409895833333 15.6358090277778  15.6358090277778 12.4409895833333  15.6358090277778 8.5  Z M 7.65393518518519 5.14854050925926  C 7.65393518518519 4.68489699074074  8.02980439814815 4.30902777777778  8.49344791666667 4.30902777777778  C 8.95709143518519 4.30902777777778  9.33294097222222 4.68489699074074  9.33294097222222 5.14854050925926  C 9.33294097222222 5.61218402777778  8.95709143518519 5.98803356481482  8.49344791666667 5.98803356481482  C 8.02980439814815 5.98803356481482  7.65393518518519 5.61218402777778  7.65393518518519 5.14854050925926  Z M 7.87037037037037 6.8275462962963  L 9.12962962962963 6.8275462962963  L 9.12962962962963 12.7040960648148  L 7.87037037037037 12.7040960648148  L 7.87037037037037 6.8275462962963  Z " fill-rule="nonzero" fill="#7f7f7f" stroke="none" transform="matrix(1 0 0 1 900 613 )" />
  </g>
</svg>