<?xml version="1.0" encoding="utf-8"?>
<svg version="1.1" xmlns:xlink="http://www.w3.org/1999/xlink" width="12px" height="12px" viewBox="690 229  12 12" xmlns="http://www.w3.org/2000/svg">
  <path d="M 696 229  C 699.36 229  702 231.64  702 235  C 702 238.36  699.36 241  696 241  C 692.64 241  690 238.36  690 235  C 690 231.64  692.64 229  696 229  Z " fill-rule="nonzero" fill="#ffffff" stroke="none" />
  <path d="M 696 229.5  C 699.08 229.5  701.5 231.92  701.5 235  C 701.5 238.08  699.08 240.5  696 240.5  C 692.92 240.5  690.5 238.08  690.5 235  C 690.5 231.92  692.92 229.5  696 229.5  Z " stroke-width="1" stroke="#797979" fill="none" />
  <path d="M 696 238  C 694.32 238  693 236.68  693 235  C 693 233.32  694.32 232  696 232  C 697.68 232  699 233.32  699 235  C 699 236.68  697.68 238  696 238  " fill-rule="nonzero" fill="#797979" stroke="none" />
</svg>