<?xml version="1.0" encoding="utf-8"?>
<svg version="1.1" xmlns:xlink="http://www.w3.org/1999/xlink" width="12px" height="12px" viewBox="740 229  12 12" xmlns="http://www.w3.org/2000/svg">
  <path d="M 746 229  C 749.36 229  752 231.64  752 235  C 752 238.36  749.36 241  746 241  C 742.64 241  740 238.36  740 235  C 740 231.64  742.64 229  746 229  Z " fill-rule="nonzero" fill="#f0f0f0" stroke="none" />
  <path d="M 746 229.5  C 749.08 229.5  751.5 231.92  751.5 235  C 751.5 238.08  749.08 240.5  746 240.5  C 742.92 240.5  740.5 238.08  740.5 235  C 740.5 231.92  742.92 229.5  746 229.5  Z " stroke-width="1" stroke="#797979" fill="none" />
  <path d="M 746 238  C 744.32 238  743 236.68  743 235  C 743 233.32  744.32 232  746 232  C 747.68 232  749 233.32  749 235  C 749 236.68  747.68 238  746 238  " fill-rule="nonzero" fill="#797979" stroke="none" />
</svg>