<?xml version="1.0" encoding="utf-8"?>
<svg version="1.1" xmlns:xlink="http://www.w3.org/1999/xlink" width="12px" height="12px" viewBox="1205 229  12 12" xmlns="http://www.w3.org/2000/svg">
  <path d="M 1211 229  C 1214.36 229  1217 231.64  1217 235  C 1217 238.36  1214.36 241  1211 241  C 1207.64 241  1205 238.36  1205 235  C 1205 231.64  1207.64 229  1211 229  Z " fill-rule="nonzero" fill="#ffffff" stroke="none" />
  <path d="M 1211 229.5  C 1214.08 229.5  1216.5 231.92  1216.5 235  C 1216.5 238.08  1214.08 240.5  1211 240.5  C 1207.92 240.5  1205.5 238.08  1205.5 235  C 1205.5 231.92  1207.92 229.5  1211 229.5  Z " stroke-width="1" stroke="#797979" fill="none" />
  <path d="M 1211 238  C 1209.32 238  1208 236.68  1208 235  C 1208 233.32  1209.32 232  1211 232  C 1212.68 232  1214 233.32  1214 235  C 1214 236.68  1212.68 238  1211 238  " fill-rule="nonzero" fill="#797979" stroke="none" />
</svg>