<?xml version="1.0" encoding="utf-8"?>
<svg version="1.1" xmlns:xlink="http://www.w3.org/1999/xlink" width="12px" height="12px" viewBox="778 229  12 12" xmlns="http://www.w3.org/2000/svg">
  <path d="M 784 229  C 787.36 229  790 231.64  790 235  C 790 238.36  787.36 241  784 241  C 780.64 241  778 238.36  778 235  C 778 231.64  780.64 229  784 229  Z " fill-rule="nonzero" fill="#ffffff" stroke="none" />
  <path d="M 784 229.5  C 787.08 229.5  789.5 231.92  789.5 235  C 789.5 238.08  787.08 240.5  784 240.5  C 780.92 240.5  778.5 238.08  778.5 235  C 778.5 231.92  780.92 229.5  784 229.5  Z " stroke-width="1" stroke="#797979" fill="none" />
  <path d="M 784 238  C 782.32 238  781 236.68  781 235  C 781 233.32  782.32 232  784 232  C 785.68 232  787 233.32  787 235  C 787 236.68  785.68 238  784 238  " fill-rule="nonzero" fill="#797979" stroke="none" />
</svg>