<?xml version="1.0" encoding="utf-8"?>
<svg version="1.1" xmlns:xlink="http://www.w3.org/1999/xlink" width="12px" height="12px" viewBox="728 229  12 12" xmlns="http://www.w3.org/2000/svg">
  <path d="M 734 229  C 737.36 229  740 231.64  740 235  C 740 238.36  737.36 241  734 241  C 730.64 241  728 238.36  728 235  C 728 231.64  730.64 229  734 229  Z " fill-rule="nonzero" fill="#f0f0f0" stroke="none" />
  <path d="M 734 229.5  C 737.08 229.5  739.5 231.92  739.5 235  C 739.5 238.08  737.08 240.5  734 240.5  C 730.92 240.5  728.5 238.08  728.5 235  C 728.5 231.92  730.92 229.5  734 229.5  Z " stroke-width="1" stroke="#797979" fill="none" />
  <path d="M 734 238  C 732.32 238  731 236.68  731 235  C 731 233.32  732.32 232  734 232  C 735.68 232  737 233.32  737 235  C 737 236.68  735.68 238  734 238  " fill-rule="nonzero" fill="#797979" stroke="none" />
</svg>